<?xml version="1.0" standalone="no"?>
<!DOCTYPE svg PUBLIC "-//W3C//DTD SVG 20010904//EN"
 "http://www.w3.org/TR/2001/REC-SVG-20010904/DTD/svg10.dtd">
<svg version="1.0" xmlns="http://www.w3.org/2000/svg"
 width="512.000000pt" height="512.000000pt" viewBox="0 0 512.000000 512.000000"
 preserveAspectRatio="xMidYMid meet">
<metadata>
Created by potrace 1.16, written by Peter Selinger 2001-2019
</metadata>
<g transform="translate(0.000000,512.000000) scale(0.100000,-0.100000)"
fill="#000000" stroke="none">
<path d="M1245 4379 c-127 -21 -235 -78 -331 -173 -80 -81 -122 -151 -156
-257 l-23 -74 0 -1315 0 -1315 23 -74 c34 -106 76 -176 156 -257 79 -78 135
-113 246 -152 l75 -27 1325 0 1325 0 75 27 c111 39 167 74 246 152 80 81 122
151 156 257 l23 74 0 1315 0 1315 -23 74 c-34 106 -76 176 -156 257 -79 78
-135 113 -246 152 l-75 27 -1295 1 c-712 1 -1317 -2 -1345 -7z m1730 -802
c107 -26 227 -88 288 -149 142 -142 178 -392 85 -588 -36 -75 -119 -162 -191
-200 -26 -14 -47 -28 -47 -31 0 -3 24 -13 54 -22 132 -42 243 -155 294 -300
31 -87 42 -261 22 -360 -37 -191 -170 -334 -383 -409 -149 -53 -218 -58 -824
-58 l-553 0 0 1063 c0 585 3 1067 7 1071 5 4 271 6 593 3 499 -3 595 -6 655
-20z"/>
<path d="M2102 2998 l3 -293 335 0 c241 0 347 4 377 13 73 22 135 73 168 137
27 53 30 68 30 150 0 82 -3 97 -30 150 -24 46 -40 64 -80 86 -74 41 -148 49
-493 49 l-312 0 2 -292z"/>
<path d="M2100 2099 l0 -330 388 3 387 3 55 26 c126 59 171 131 178 281 7 153
-39 248 -147 302 -81 41 -133 46 -506 46 l-355 0 0 -331z"/>
</g>
</svg>
