<?xml version="1.0" standalone="no"?>
<!DOCTYPE svg PUBLIC "-//W3C//DTD SVG 20010904//EN"
 "http://www.w3.org/TR/2001/REC-SVG-20010904/DTD/svg10.dtd">
<svg version="1.0" xmlns="http://www.w3.org/2000/svg"
 width="920.000000pt" height="920.000000pt" viewBox="0 0 920.000000 920.000000"
 preserveAspectRatio="xMidYMid meet">
<metadata>
Created by potrace 1.16, written by Peter Selinger 2001-2019
</metadata>
<g transform="translate(0.000000,920.000000) scale(0.100000,-0.100000)"
fill="#000000" stroke="none">
<path d="M4290 9190 c-353 -28 -634 -77 -935 -161 -1577 -439 -2818 -1713
-3215 -3299 -102 -408 -148 -829 -137 -1247 39 -1418 706 -2709 1842 -3565
456 -344 1021 -617 1577 -762 259 -68 459 -103 783 -137 167 -18 649 -15 835
5 213 22 278 32 477 72 1670 334 3034 1596 3503 3242 76 267 124 517 156 822
20 186 23 668 5 835 -69 653 -204 1131 -474 1672 -569 1140 -1603 1998 -2834
2353 -213 61 -520 124 -713 145 -80 9 -161 18 -180 20 -72 10 -589 13 -690 5z
m-545 -1747 c148 -32 278 -122 334 -230 41 -82 37 -201 -10 -295 -23 -46 -24
-76 -2 -100 23 -26 54 -22 99 10 56 41 103 98 132 160 33 73 28 179 -12 265
l-28 58 26 34 c15 19 53 47 90 65 116 57 315 53 493 -12 46 -16 86 -34 89 -40
3 -5 -10 -39 -30 -76 -90 -172 -59 -322 92 -442 60 -48 97 -51 121 -9 14 25
13 32 -15 95 -24 58 -29 82 -29 154 0 70 4 94 25 135 72 148 272 246 505 248
116 1 182 -19 271 -81 55 -39 164 -155 164 -175 0 -2 -47 -7 -104 -10 -265
-15 -516 -140 -596 -298 -27 -53 -19 -62 63 -67 71 -5 119 7 287 69 107 39
124 42 241 47 158 5 255 -16 418 -94 228 -109 388 -240 453 -371 30 -61 33
-76 33 -153 0 -66 -6 -106 -29 -177 l-29 -93 -107 0 c-125 0 -204 -13 -465
-74 -503 -118 -611 -123 -714 -30 -112 101 -105 231 19 355 123 123 335 167
733 153 181 -6 199 -5 217 11 22 20 27 83 10 116 -44 80 -396 132 -650 95
-328 -48 -554 -197 -617 -405 -23 -74 -22 -207 1 -286 51 -172 142 -266 306
-316 64 -20 96 -24 215 -23 162 0 285 20 550 89 223 57 281 67 395 66 222 -1
378 -99 478 -300 34 -70 37 -81 37 -165 0 -78 -4 -99 -27 -149 -41 -87 -126
-166 -240 -221 -136 -67 -198 -76 -500 -76 -354 0 -488 -20 -642 -96 -158 -78
-276 -200 -317 -326 -30 -94 -24 -241 14 -340 55 -143 157 -262 274 -320 61
-30 76 -33 153 -33 71 0 94 4 142 27 69 32 158 112 158 142 0 44 -15 51 -117
57 -138 8 -195 29 -265 99 -45 45 -60 69 -73 115 -52 176 64 346 272 400 46
12 124 15 385 14 l328 -1 36 -40 c50 -55 66 -101 67 -183 0 -105 -27 -159
-125 -249 -73 -66 -80 -76 -80 -110 0 -51 30 -90 70 -94 45 -5 123 41 192 111
l57 57 59 -43 c153 -113 254 -293 254 -453 0 -112 -67 -248 -159 -322 -137
-110 -359 -177 -504 -153 -90 15 -154 50 -257 140 -138 119 -179 135 -208 81
-18 -35 -11 -145 13 -195 32 -66 125 -149 217 -194 128 -61 190 -74 343 -69
118 4 139 8 235 42 58 20 112 40 122 42 20 7 31 -35 31 -117 -1 -71 -28 -134
-78 -177 -110 -98 -302 -131 -905 -157 -402 -17 -543 -58 -681 -195 -77 -77
-109 -137 -109 -206 0 -114 109 -183 271 -172 78 6 99 18 99 58 0 20 -13 38
-51 70 -40 34 -50 47 -47 68 10 87 279 147 738 167 80 3 153 9 164 12 23 7 19
0 -52 -92 -82 -104 -296 -313 -385 -373 -153 -105 -287 -152 -437 -152 -110 0
-182 19 -300 77 -247 124 -382 369 -337 610 51 270 248 511 477 585 56 18 92
21 267 22 188 1 204 3 230 22 18 14 29 32 31 52 5 46 -69 122 -167 170 -72 36
-79 37 -175 36 -84 -1 -116 -6 -188 -31 -102 -35 -215 -98 -300 -166 l-60 -49
-67 18 c-92 25 -115 51 -131 144 -16 97 3 200 59 317 64 133 126 191 289 269
207 100 205 117 -33 275 -166 111 -212 153 -258 236 -49 90 -61 161 -62 348 0
166 1 171 28 230 61 131 219 228 436 269 96 18 313 34 576 41 286 7 491 41
601 98 91 48 132 150 81 201 -35 35 -57 33 -107 -9 -23 -19 -58 -39 -78 -44
-67 -18 -242 -30 -517 -36 -148 -3 -312 -10 -363 -16 -90 -9 -95 -8 -170 21
-111 43 -165 80 -218 152 -113 152 -167 324 -168 538 -1 209 35 295 162 384
142 100 156 124 102 170 -81 67 -216 33 -321 -82 -98 -107 -150 -264 -151
-457 -1 -132 10 -207 49 -335 48 -161 135 -305 244 -404 34 -31 60 -57 58 -59
-2 -2 -35 -16 -72 -31 -95 -40 -172 -93 -240 -164 -106 -113 -150 -253 -150
-477 1 -276 89 -529 235 -679 l58 -60 -50 -47 c-188 -180 -299 -475 -261 -693
24 -135 96 -243 198 -296 26 -14 50 -26 52 -27 2 -1 -8 -21 -21 -45 -45 -76
-97 -221 -113 -312 -32 -185 -14 -364 52 -508 l36 -78 -24 -35 c-29 -44 -100
-92 -146 -101 -64 -12 -160 2 -219 32 -57 29 -154 123 -154 150 0 8 9 32 19
52 54 106 74 304 47 460 -20 116 -45 193 -98 300 -22 46 -39 84 -37 86 2 2 28
16 57 31 181 97 246 354 157 621 -43 130 -132 271 -226 360 l-54 50 51 50 c96
93 171 239 216 422 19 73 22 116 22 267 1 200 -10 258 -66 369 -57 113 -213
241 -345 283 -29 9 -53 19 -53 22 0 3 16 17 35 30 139 95 281 365 316 600 18
127 7 307 -24 406 -63 193 -184 318 -320 332 -96 9 -180 -61 -136 -114 8 -8
45 -37 84 -63 88 -59 121 -93 150 -150 35 -71 47 -137 47 -260 -1 -244 -73
-442 -212 -581 -56 -56 -78 -71 -157 -102 l-92 -37 -98 10 c-54 5 -219 12
-368 15 -426 10 -532 24 -585 78 -23 23 -39 31 -66 31 -45 0 -64 -23 -64 -79
0 -146 219 -225 670 -240 466 -16 547 -22 680 -56 179 -45 327 -151 370 -266
49 -129 33 -419 -31 -549 -43 -86 -132 -169 -290 -268 -206 -129 -211 -173
-29 -251 47 -20 106 -50 133 -67 132 -85 238 -286 239 -454 0 -149 -29 -192
-154 -223 l-47 -11 -65 49 c-145 110 -306 181 -441 196 -120 14 -242 -27 -327
-110 -50 -47 -64 -79 -54 -118 10 -43 46 -50 251 -52 209 -2 251 -9 360 -60
165 -78 324 -289 379 -501 18 -70 21 -197 5 -264 -35 -151 -167 -309 -331
-395 -299 -157 -623 -69 -949 257 -113 112 -274 311 -231 285 4 -3 77 -8 162
-12 345 -14 551 -45 677 -101 89 -39 92 -96 8 -145 -39 -24 -51 -49 -35 -79
15 -29 50 -40 123 -40 107 0 179 32 224 99 50 73 15 179 -93 287 -130 130
-283 173 -679 189 -609 25 -810 63 -918 171 -52 52 -73 125 -61 214 11 78 5
77 154 23 105 -38 106 -38 260 -38 143 0 161 2 228 27 217 79 342 220 329 371
-12 130 -61 119 -260 -59 -153 -137 -372 -145 -609 -22 -260 134 -337 372
-207 630 33 65 140 184 207 230 l44 31 39 -46 c43 -49 130 -112 172 -122 62
-16 107 25 107 96 0 26 -9 40 -42 68 -80 69 -121 115 -140 159 -46 104 -29
229 43 307 l40 43 320 1 c402 1 464 -10 570 -106 131 -118 137 -324 13 -433
-67 -59 -135 -83 -248 -88 -56 -2 -107 -9 -113 -14 -7 -6 -13 -24 -13 -41 0
-49 94 -126 194 -160 135 -46 278 3 403 137 165 176 211 447 106 625 -69 118
-220 232 -378 286 -116 39 -186 47 -525 55 -371 8 -395 12 -530 78 -90 44
-194 143 -230 217 -32 65 -39 179 -16 257 31 109 142 246 242 300 151 81 334
80 639 -3 344 -95 617 -120 777 -73 220 66 337 241 326 493 -3 82 -8 106 -35
163 -102 217 -374 351 -743 365 -211 8 -435 -34 -488 -90 -33 -35 -39 -86 -14
-117 l20 -25 279 -1 c369 -1 494 -24 614 -114 149 -112 187 -266 92 -371 -63
-69 -102 -84 -223 -83 -118 0 -187 12 -515 89 -286 67 -334 75 -467 75 l-107
0 -24 78 c-41 129 -50 186 -38 243 34 158 149 283 383 418 208 119 339 156
531 149 110 -5 132 -9 222 -43 191 -71 261 -85 344 -69 41 8 41 36 1 96 -97
146 -380 268 -622 268 l-69 0 22 33 c13 17 51 60 85 93 133 132 283 167 509
117z m-1687 -2688 c20 -13 69 -36 107 -50 39 -15 71 -28 73 -29 1 -2 -14 -37
-33 -78 -40 -83 -58 -171 -49 -238 l6 -45 -67 -29 c-69 -30 -191 -118 -216
-157 -19 -28 -31 -21 -66 38 -68 116 -25 379 84 519 28 35 100 94 115 94 5 0
25 -11 46 -25z m5190 -20 c68 -62 108 -124 138 -219 49 -156 42 -297 -17 -370
l-31 -36 -71 66 c-47 43 -97 78 -149 102 l-77 37 -1 81 c0 87 -21 165 -64 239
l-24 41 67 23 c37 13 88 36 112 51 24 16 49 29 55 29 7 1 34 -19 62 -44z"/>
</g>
</svg>
