<?xml version="1.0" standalone="no"?>
<!DOCTYPE svg PUBLIC "-//W3C//DTD SVG 20010904//EN"
 "http://www.w3.org/TR/2001/REC-SVG-20010904/DTD/svg10.dtd">
<svg version="1.0" xmlns="http://www.w3.org/2000/svg"
 width="300.000000pt" height="299.000000pt" viewBox="0 0 300.000000 299.000000"
 preserveAspectRatio="xMidYMid meet">
<metadata>
Created by potrace 1.16, written by Peter Selinger 2001-2019
</metadata>
<g transform="translate(0.000000,299.000000) scale(0.100000,-0.100000)"
fill="#000000" stroke="none">
<path d="M1315 2843 c-393 -50 -739 -261 -948 -578 -78 -119 -111 -186 -152
-308 -137 -408 -65 -859 191 -1200 194 -259 460 -427 794 -504 108 -25 403
-25 520 1 745 162 1195 888 1005 1620 -110 423 -436 769 -860 910 -156 52
-399 78 -550 59z m174 -415 c12 -73 25 -141 27 -150 5 -16 -2 -18 -56 -18 -57
0 -62 2 -57 20 3 10 15 78 28 150 12 71 25 130 29 130 4 0 17 -60 29 -132z
m-565 -238 l118 -83 -40 -40 c-22 -22 -45 -37 -50 -33 -9 5 -141 191 -167 235
-14 24 13 9 139 -79z m1201 63 c-49 -76 -157 -223 -163 -223 -5 0 -25 17 -46
39 l-37 38 123 87 c68 47 127 86 132 86 4 0 0 -12 -9 -27z m-574 -203 c176
-33 325 -179 365 -358 32 -142 4 -252 -103 -410 -84 -124 -91 -138 -119 -249
-18 -74 -24 -122 -24 -212 0 -134 -14 -176 -73 -228 -84 -74 -204 -69 -283 11
-52 52 -64 93 -64 227 0 79 -6 131 -24 202 -28 111 -35 125 -119 249 -35 52
-74 121 -86 153 -111 295 111 616 430 624 26 1 71 -4 100 -9z m-741 -445 c0
-65 9 -63 -151 -35 -142 25 -163 30 -156 36 5 6 252 52 285 53 20 1 22 -3 22
-54z m1464 30 c76 -13 141 -27 144 -29 6 -6 -15 -11 -157 -36 -160 -28 -151
-30 -151 35 0 38 4 55 13 55 7 0 75 -11 151 -25z m-1271 -493 c35 -36 37 -39
20 -54 -40 -33 -233 -161 -238 -157 -6 6 163 249 174 249 4 0 24 -17 44 -38z
m1051 -84 c47 -67 83 -124 80 -127 -4 -4 -199 125 -237 157 -17 15 -15 18 20
54 20 21 40 38 44 38 4 0 46 -55 93 -122z"/>
</g>
</svg>
