<?xml version="1.0" standalone="no"?>
<!DOCTYPE svg PUBLIC "-//W3C//DTD SVG 20010904//EN"
 "http://www.w3.org/TR/2001/REC-SVG-20010904/DTD/svg10.dtd">
<svg version="1.0" xmlns="http://www.w3.org/2000/svg"
 width="900.000000pt" height="512.000000pt" viewBox="0 0 900.000000 512.000000"
 preserveAspectRatio="xMidYMid meet">
<metadata>
Created by potrace 1.16, written by Peter Selinger 2001-2019
</metadata>
<g transform="translate(0.000000,512.000000) scale(0.100000,-0.100000)"
fill="#000000" stroke="none">
<path d="M6235 4978 c-22 -11 -57 -21 -80 -21 -22 0 -59 -8 -82 -18 -23 -10
-60 -20 -81 -22 -22 -3 -53 -12 -70 -21 -18 -9 -54 -18 -81 -19 -27 -2 -61
-11 -75 -20 -14 -9 -39 -17 -55 -17 -16 0 -50 -9 -76 -20 -25 -11 -57 -22 -70
-24 -24 -5 -133 -37 -190 -58 -16 -5 -49 -13 -72 -17 -24 -5 -51 -15 -61 -24
-10 -10 -32 -17 -48 -17 -16 0 -46 -9 -67 -20 -20 -11 -47 -20 -59 -20 -13 0
-38 -9 -56 -20 -18 -11 -46 -20 -62 -20 -16 0 -44 -9 -62 -20 -18 -11 -43 -20
-56 -20 -12 0 -33 -7 -45 -15 -31 -20 -143 -25 -139 -6 3 12 0 12 -12 1 -18
-14 -21 -24 -5 -14 7 4 10 2 8 -5 -3 -7 -9 -13 -14 -13 -6 -1 -26 -11 -46 -23
-19 -13 -66 -35 -105 -50 -94 -37 -160 -67 -339 -150 -115 -54 -101 -46 -230
-115 -292 -155 -600 -358 -688 -455 -10 -10 -28 -26 -41 -35 -13 -8 -81 -70
-152 -136 -71 -67 -151 -140 -179 -164 -27 -23 -60 -52 -71 -65 -30 -30 -158
-136 -219 -179 -92 -65 -250 -171 -275 -184 -14 -7 -54 -28 -90 -47 -36 -19
-73 -35 -82 -35 -9 0 -20 -5 -23 -10 -3 -6 -26 -15 -51 -21 -52 -13 -64 -40
-40 -87 9 -17 16 -36 16 -42 0 -16 56 -97 104 -150 70 -77 386 -391 485 -480
97 -89 129 -117 204 -187 24 -23 47 -40 49 -38 2 3 26 -18 53 -46 27 -28 72
-66 100 -84 27 -19 66 -55 85 -80 19 -26 43 -55 52 -65 9 -11 32 -47 49 -82
18 -35 47 -85 65 -113 18 -27 36 -63 40 -80 4 -16 10 -34 14 -40 15 -20 59
-141 65 -180 14 -91 16 -97 32 -90 12 4 13 2 5 -7 -12 -15 6 -110 26 -130 6
-6 12 -24 12 -39 0 -14 8 -37 18 -50 10 -13 21 -32 25 -41 3 -10 11 -18 17
-18 6 0 9 -4 6 -8 -3 -5 8 -24 23 -43 15 -19 30 -38 32 -44 7 -17 175 -175
186 -175 5 0 19 -8 31 -18 12 -10 41 -31 66 -47 26 -16 46 -32 46 -36 0 -4 29
-17 65 -30 36 -12 65 -27 65 -31 0 -5 5 -6 10 -3 6 3 10 2 10 -3 0 -10 58 -36
73 -33 4 0 7 -3 7 -7 0 -11 9 -11 144 -11 115 0 141 7 151 39 4 11 11 17 17
14 6 -4 8 -2 4 4 -3 6 -2 13 4 17 18 11 11 113 -12 163 -13 29 -20 63 -19 89
1 34 -2 44 -20 53 -21 12 -21 11 -15 -26 4 -22 14 -52 23 -69 8 -16 17 -61 20
-100 4 -68 3 -71 -27 -103 l-32 -33 -104 2 c-57 1 -104 6 -104 11 0 4 -3 7 -7
6 -5 -1 -21 4 -38 11 -16 7 -41 13 -56 14 -15 1 -25 5 -23 8 4 8 -51 32 -72
32 -7 0 -11 3 -9 7 2 4 -12 14 -31 24 -24 11 -33 12 -28 4 3 -7 -5 -1 -20 14
-15 16 -33 28 -41 28 -8 0 -15 4 -15 9 0 4 -26 26 -57 49 -99 69 -203 191
-258 299 -38 74 -67 174 -80 273 -12 88 -51 193 -126 342 -94 185 -155 274
-226 330 -32 26 -69 57 -83 70 -14 13 -41 36 -60 52 -138 113 -620 585 -730
715 -102 119 -150 186 -148 204 2 11 25 27 63 44 63 27 166 77 200 96 126 74
354 233 415 289 14 13 36 30 50 39 14 9 98 80 188 158 89 77 165 141 168 141
3 0 12 7 20 15 9 8 13 15 10 15 -10 0 108 105 187 166 113 88 180 134 194 134
7 0 13 5 13 10 0 6 12 16 27 23 15 6 36 20 45 30 10 9 27 17 38 17 11 0 20 4
20 10 0 5 17 17 37 25 21 9 40 20 43 26 4 5 15 11 26 13 25 5 96 46 110 64 6
8 19 15 30 16 11 0 56 18 99 40 44 21 98 46 120 56 87 38 132 58 168 76 21 10
47 19 58 21 11 2 33 10 49 18 16 8 37 15 47 15 10 0 34 8 53 19 19 10 71 31
115 46 44 15 85 31 90 35 6 4 26 13 45 19 46 14 150 49 175 60 34 15 237 82
290 96 28 7 68 20 90 28 84 30 112 39 160 53 28 7 70 19 95 27 118 38 186 57
201 57 9 0 36 9 60 20 53 24 127 27 135 5 4 -10 -31 -52 -103 -122 -168 -167
-302 -353 -402 -559 -77 -157 -75 -152 -104 -244 -50 -153 -69 -284 -64 -452
2 -84 7 -164 11 -178 4 -14 8 -31 8 -37 1 -7 4 -13 8 -13 3 0 7 -15 8 -32 4
-48 22 -109 30 -104 4 3 9 -7 10 -22 5 -55 19 -102 31 -102 4 0 8 -6 9 -12 7
-70 15 -106 28 -125 8 -13 12 -28 9 -33 -3 -6 -2 -10 3 -10 7 0 12 -34 16
-125 0 -16 5 -33 11 -37 6 -5 4 -8 -5 -8 -12 -1 -11 -3 3 -11 9 -6 15 -15 11
-20 -3 -5 -1 -16 6 -24 8 -10 8 -15 -1 -20 -8 -6 -7 -10 2 -16 11 -7 11 -9 1
-9 -8 0 -10 -5 -5 -12 10 -17 10 -38 1 -66 -5 -15 -4 -21 2 -17 6 3 10 2 10
-4 0 -5 -5 -13 -10 -16 -8 -5 -8 -11 -1 -19 7 -9 7 -17 -2 -26 -9 -10 -9 -11
0 -6 10 5 11 -15 7 -91 -2 -54 -6 -111 -8 -128 -11 -114 -19 -175 -28 -210 -6
-22 -14 -62 -18 -90 -9 -54 -32 -125 -61 -191 -11 -23 -19 -53 -19 -67 0 -13
-6 -27 -14 -30 -8 -3 -17 -24 -21 -46 -4 -22 -13 -45 -21 -52 -8 -6 -14 -15
-14 -20 0 -12 -18 -50 -45 -94 -13 -22 -30 -51 -37 -65 -7 -14 -18 -29 -25
-33 -7 -4 -13 -13 -13 -19 0 -15 -62 -108 -72 -108 -4 0 -8 -5 -8 -11 0 -26
-161 -201 -225 -245 -35 -24 -46 -25 -155 -26 -96 0 -123 3 -156 19 -21 11
-54 21 -73 21 -18 0 -41 8 -52 18 -10 9 -32 18 -49 20 -18 2 -43 13 -56 23
-26 21 -54 18 -54 -5 0 -23 22 -119 30 -129 4 -5 15 -36 24 -68 22 -76 41 -66
33 17 -2 34 -3 66 -1 72 4 10 82 1 124 -14 8 -3 18 -6 23 -7 4 -2 8 -3 10 -5
18 -15 138 -20 156 -6 11 8 13 8 8 0 -9 -15 43 -16 61 -1 9 7 11 6 6 -7 -5
-12 -2 -15 10 -10 9 3 13 11 10 18 -3 6 1 3 9 -6 12 -15 19 -16 48 -7 49 16
79 31 79 41 0 5 -5 6 -12 2 -7 -4 -8 -3 -4 5 4 6 12 9 17 6 5 -4 9 -1 9 5 0 6
4 9 9 6 19 -12 144 110 136 132 -3 7 3 16 13 19 30 11 98 94 104 128 1 11 11
27 21 36 9 9 17 24 17 34 0 11 5 15 14 12 14 -6 43 47 38 69 -1 7 4 14 13 18
8 3 15 16 15 28 0 13 9 30 20 38 11 8 20 25 20 37 0 14 6 23 15 23 8 0 19 17
26 43 6 23 20 58 30 78 10 20 19 44 19 53 0 10 4 15 9 12 8 -5 13 13 27 84 2
8 8 16 13 18 6 2 11 10 11 17 0 19 32 85 41 85 4 0 9 -7 13 -15 3 -8 12 -15
21 -15 8 0 15 -4 15 -10 0 -5 4 -10 10 -10 13 0 41 -23 116 -96 34 -34 80 -74
102 -90 126 -90 165 -116 175 -118 36 -8 67 -27 61 -38 -4 -6 -3 -8 4 -4 5 3
12 3 14 -1 7 -17 75 -42 86 -31 6 6 12 6 17 -3 6 -8 4 -10 -6 -4 -10 6 -11 5
-4 -3 6 -6 22 -13 37 -16 14 -2 46 -15 70 -28 55 -31 154 -62 173 -54 8 3 15
1 15 -5 0 -6 8 -5 21 2 12 6 19 7 16 2 -3 -5 3 -10 14 -10 16 -2 18 1 10 11
-8 10 0 12 38 11 44 -1 49 1 47 19 -2 12 -8 30 -14 41 -23 41 -52 118 -52 138
0 11 -9 39 -20 61 -10 23 -20 57 -21 76 -1 19 -8 60 -16 90 -17 60 -23 276
-12 416 7 83 30 200 55 269 7 22 16 58 20 80 3 22 12 51 20 65 7 14 27 59 45
100 17 41 52 106 78 143 25 38 53 81 62 96 9 15 29 41 44 57 15 16 39 45 54
64 14 19 28 37 31 40 3 3 23 29 44 58 21 28 47 59 58 66 13 9 18 21 14 31 -5
14 -20 15 -113 11 -115 -6 -124 -7 -218 -26 -33 -6 -78 -13 -100 -16 -22 -2
-58 -11 -80 -19 -22 -8 -58 -17 -79 -20 -21 -2 -46 -11 -56 -20 -9 -8 -27 -15
-41 -15 -13 0 -37 -9 -54 -20 -16 -11 -37 -20 -46 -20 -9 0 -27 -9 -41 -19
-13 -11 -51 -33 -83 -51 -33 -17 -73 -40 -90 -51 -16 -10 -43 -26 -60 -35 -16
-8 -41 -22 -55 -29 -14 -8 -26 -11 -28 -6 -2 5 18 49 43 99 25 50 45 97 45
104 0 7 11 49 25 93 13 44 27 112 31 150 4 39 8 71 9 73 1 2 -2 22 -7 45 -5
23 -11 66 -13 95 -3 32 -13 65 -25 82 -11 15 -20 32 -20 38 0 26 -115 140
-195 195 -82 55 -185 197 -185 254 0 11 7 26 15 33 8 7 15 17 15 22 0 5 8 21
19 36 33 49 55 87 57 99 1 7 20 34 42 60 22 26 47 62 55 79 15 28 63 87 184
221 26 28 51 49 55 47 4 -3 8 -1 8 4 0 11 55 69 136 142 27 25 68 65 90 90 23
25 53 55 68 67 31 27 33 39 7 53 -26 13 -29 13 -76 -12z m-695 -1140 c0 -5 5
-6 12 -2 8 5 9 1 4 -12 -6 -15 -5 -17 5 -6 21 20 44 14 80 -21 19 -18 69 -61
111 -95 75 -61 138 -136 138 -164 0 -8 11 -29 25 -48 23 -31 25 -42 25 -143 0
-92 -3 -115 -20 -142 -11 -18 -23 -52 -26 -76 -4 -24 -11 -53 -17 -64 -6 -11
-23 -54 -38 -95 -15 -41 -38 -95 -53 -120 -14 -25 -34 -61 -45 -81 -11 -19
-39 -57 -64 -85 -24 -27 -49 -59 -56 -72 -10 -19 -15 -21 -27 -11 -8 6 -14 20
-14 31 0 10 -7 32 -14 47 -8 15 -18 52 -21 82 -4 30 -15 81 -25 114 -10 33
-22 78 -28 100 -5 22 -14 54 -20 70 -43 125 -61 239 -62 394 0 117 18 281 31
281 5 0 8 3 7 8 -4 16 25 127 35 134 12 7 57 -11 57 -24z m1286 -760 c10 8
-15 -27 -32 -45 -7 -7 -15 -9 -19 -5 -4 4 -6 3 -4 -3 1 -5 -3 -21 -9 -35 -6
-14 -11 -21 -11 -17 -2 20 -126 -157 -171 -243 -18 -36 -39 -76 -47 -90 -7
-14 -13 -35 -13 -46 0 -12 -7 -27 -15 -34 -8 -7 -15 -28 -15 -47 0 -19 -6 -46
-14 -61 -8 -15 -17 -50 -21 -77 -4 -28 -14 -75 -21 -105 -10 -37 -14 -114 -14
-240 0 -210 12 -349 35 -403 8 -20 15 -54 15 -74 0 -21 7 -49 17 -62 9 -13 20
-44 24 -68 5 -24 16 -51 24 -60 10 -10 15 -29 13 -52 -3 -34 -5 -36 -39 -39
-24 -2 -49 4 -70 17 -19 12 -50 21 -70 21 -21 0 -47 8 -62 20 -14 11 -38 20
-55 20 -16 0 -37 9 -47 20 -10 11 -28 20 -40 20 -12 0 -34 9 -48 20 -14 11
-29 20 -35 20 -5 0 -19 9 -32 20 -13 11 -28 20 -35 20 -7 0 -20 9 -30 20 -10
11 -22 20 -28 20 -5 0 -23 11 -41 25 -17 14 -51 42 -76 62 -70 57 -190 182
-242 251 -46 62 -48 65 -43 120 2 31 7 68 10 82 3 14 12 84 19 155 15 143 34
214 68 260 12 17 81 89 153 160 130 131 224 202 345 263 36 18 72 37 80 41 8
5 34 17 58 27 23 9 42 20 42 24 0 4 10 6 23 5 12 -1 42 8 67 20 25 11 56 21
70 20 14 0 45 8 70 18 25 10 77 20 115 22 79 5 101 8 111 18 4 4 12 2 19 -3 7
-5 16 -6 21 -2z"/>
<path d="M2824 2951 c-34 -42 -38 -77 -14 -127 21 -43 37 -53 55 -35 18 17
106 51 99 38 -5 -9 -4 -9 6 0 8 7 21 8 34 4 11 -5 29 -7 39 -5 9 1 15 -2 11
-7 -4 -8 34 -14 59 -10 5 1 6 -3 2 -9 -3 -5 -1 -10 5 -10 6 0 8 -5 4 -11 -4
-8 0 -8 15 0 11 6 25 20 31 31 15 27 12 123 -4 145 -11 16 -17 17 -42 7 -42
-18 -72 -23 -134 -22 -79 0 -124 8 -135 23 -8 11 -14 8 -31 -12z"/>
</g>
</svg>
