<?xml version="1.0" standalone="no"?>
<!DOCTYPE svg PUBLIC "-//W3C//DTD SVG 20010904//EN"
 "http://www.w3.org/TR/2001/REC-SVG-20010904/DTD/svg10.dtd">
<svg version="1.0" xmlns="http://www.w3.org/2000/svg"
 width="512.000000pt" height="512.000000pt" viewBox="0 0 512.000000 512.000000"
 preserveAspectRatio="xMidYMid meet">
<metadata>
Created by potrace 1.16, written by Peter Selinger 2001-2019
</metadata>
<g transform="translate(0.000000,512.000000) scale(0.100000,-0.100000)"
fill="#000000" stroke="none">
<path d="M3935 5101 c-141 -65 -235 -216 -235 -376 0 -39 14 -120 36 -209 32
-134 34 -151 24 -201 -12 -57 -61 -134 -108 -169 -39 -30 -112 -32 -181 -7
-154 56 -306 167 -526 383 l-160 157 -290 -288 c-313 -310 -392 -373 -568
-456 -134 -63 -212 -87 -292 -88 -86 -2 -126 18 -172 86 -48 71 -54 119 -46
370 5 193 4 230 -11 282 -23 78 -65 143 -134 207 -205 187 -535 156 -786 -73
-132 -122 -280 -315 -346 -453 -57 -121 -75 -192 -75 -306 0 -95 3 -111 29
-168 35 -76 102 -140 190 -181 115 -54 202 -62 414 -35 71 9 151 13 181 10 86
-10 191 -71 224 -131 48 -89 8 -286 -106 -510 l-50 -100 -381 -383 -381 -382
1040 -1040 c572 -572 1045 -1040 1051 -1040 22 0 619 614 691 711 173 231 262
440 234 547 -12 41 -66 99 -121 128 -37 20 -94 22 -450 13 -152 -4 -156 -3
-213 23 -81 38 -170 129 -209 215 -25 55 -32 85 -36 159 -6 112 7 170 63 289
53 113 111 189 225 298 137 131 289 224 455 279 58 19 91 23 195 23 122 0 127
-1 192 -33 105 -52 179 -148 213 -279 21 -79 19 -129 -11 -289 -30 -160 -28
-228 10 -302 31 -62 94 -119 141 -128 119 -22 350 58 505 176 36 27 218 202
404 389 l340 340 -255 258 c-274 279 -364 381 -454 513 -82 120 -118 202 -123
276 -4 59 -3 63 33 102 74 82 158 101 340 78 231 -31 358 -18 444 44 54 39
124 135 152 208 30 80 37 216 15 313 -71 317 -369 630 -708 743 -69 23 -92 26
-225 26 -123 0 -155 -4 -188 -19z"/>
</g>
</svg>
