<?xml version="1.0" standalone="no"?>
<!DOCTYPE svg PUBLIC "-//W3C//DTD SVG 20010904//EN"
 "http://www.w3.org/TR/2001/REC-SVG-20010904/DTD/svg10.dtd">
<svg version="1.0" xmlns="http://www.w3.org/2000/svg"
 width="225.000000pt" height="225.000000pt" viewBox="0 0 225.000000 225.000000"
 preserveAspectRatio="xMidYMid meet">
<metadata>
Created by potrace 1.16, written by Peter Selinger 2001-2019
</metadata>
<g transform="translate(0.000000,225.000000) scale(0.100000,-0.100000)"
fill="#000000" stroke="none">
<path d="M859 1811 c-123 -71 -267 -153 -319 -184 -58 -33 -104 -67 -118 -88
l-23 -33 3 -392 3 -392 24 -26 c14 -15 165 -107 337 -206 282 -163 316 -180
358 -180 43 0 77 17 361 181 182 104 325 193 340 211 l25 30 0 395 0 396 -37
35 c-21 19 -175 113 -342 208 -261 149 -310 174 -346 174 -35 0 -76 -20 -266
-129z m475 -249 c64 -32 98 -57 145 -107 33 -36 61 -72 61 -79 0 -8 -45 -40
-101 -71 l-100 -58 -42 41 c-53 52 -101 72 -174 72 -135 -1 -233 -100 -233
-235 0 -137 98 -235 235 -235 75 0 128 24 176 77 l37 41 106 -62 106 -62 -28
-40 c-118 -162 -331 -240 -518 -190 -168 45 -316 194 -353 357 -18 75 -13 193
10 262 52 155 192 288 346 327 21 5 84 8 140 6 98 -3 107 -5 187 -44z m266
-342 c0 -16 7 -20 30 -20 23 0 30 4 30 20 0 15 7 20 25 20 18 0 25 -5 25 -20
0 -13 7 -20 20 -20 15 0 20 -7 20 -25 0 -18 -5 -25 -20 -25 -15 0 -20 -7 -20
-25 0 -18 5 -25 20 -25 16 0 20 -7 20 -30 0 -23 -4 -30 -20 -30 -13 0 -20 -7
-20 -20 0 -15 -7 -20 -25 -20 -18 0 -25 5 -25 20 0 16 -7 20 -30 20 -23 0 -30
-4 -30 -20 0 -27 -40 -27 -47 -1 -3 11 -13 21 -24 24 -26 7 -25 47 1 54 13 3
20 14 20 29 0 17 -6 24 -20 24 -15 0 -20 7 -20 25 0 18 5 25 20 25 13 0 20 7
20 20 0 15 7 20 25 20 18 0 25 -5 25 -20z"/>
</g>
</svg>
