<?xml version="1.0" standalone="no"?>
<!DOCTYPE svg PUBLIC "-//W3C//DTD SVG 20010904//EN"
 "http://www.w3.org/TR/2001/REC-SVG-20010904/DTD/svg10.dtd">
<svg version="1.0" xmlns="http://www.w3.org/2000/svg"
 width="300.000000pt" height="300.000000pt" viewBox="0 0 300.000000 300.000000"
 preserveAspectRatio="xMidYMid meet">
<metadata>
Created by potrace 1.16, written by Peter Selinger 2001-2019
</metadata>
<g transform="translate(0.000000,300.000000) scale(0.100000,-0.100000)"
fill="#000000" stroke="none">
<path d="M1325 2993 c-249 -32 -474 -117 -680 -256 -104 -70 -299 -260 -366
-357 -119 -169 -201 -350 -247 -543 -24 -103 -26 -130 -27 -327 0 -235 8 -294
67 -480 117 -371 387 -690 735 -868 212 -108 382 -151 628 -159 107 -4 204 -1
260 6 343 45 641 193 880 436 158 160 275 350 350 565 95 276 101 625 14 923
-38 130 -151 359 -229 462 -242 322 -592 531 -983 589 -95 15 -322 19 -402 9z
m393 -597 c1 -2 -22 -149 -52 -327 -39 -232 -52 -327 -44 -336 8 -10 55 -13
183 -13 152 0 175 -2 195 -18 19 -15 21 -23 14 -44 -5 -14 -146 -253 -313
-533 -273 -455 -308 -509 -339 -522 -19 -8 -45 -12 -58 -9 -19 5 -23 11 -18
34 3 15 27 162 54 327 35 215 46 303 38 312 -8 10 -56 13 -189 13 -148 0 -180
3 -193 16 -29 28 -52 -15 311 591 312 520 321 532 383 517 14 -3 26 -7 28 -8z"/>
</g>
</svg>
